<?xml version="1.0" encoding="utf-8"?>
<!-- Generator: Adobe Illustrator 16.0.0, SVG Export Plug-In . SVG Version: 6.00 Build 0)  -->
<!DOCTYPE svg PUBLIC "-//W3C//DTD SVG 1.1//EN" "http://www.w3.org/Graphics/SVG/1.1/DTD/svg11.dtd">
<svg version="1.1" id="Layer_1" xmlns="http://www.w3.org/2000/svg" xmlns:xlink="http://www.w3.org/1999/xlink" x="0px" y="0px"
	 width="672.597px" height="249.955px" viewBox="0 0 672.597 249.955" enable-background="new 0 0 672.597 249.955"
	 xml:space="preserve">
<path fill="#F5AF02" d="M394.861,132.56c-28.341,0.93-45.95,6.043-45.95,24.711c0,12.086,9.635,25.188,34.095,25.188
	c32.793,0,50.298-17.875,50.298-47.193l0.002-3.225C421.809,132.041,407.631,132.142,394.861,132.56z M464.563,171.294
	c0,9.096,0.263,18.074,1.057,26.16h-29.074c-0.775-6.658-1.059-13.273-1.059-19.689c-15.719,19.322-34.415,24.877-60.352,24.877
	c-38.469,0-59.066-20.332-59.066-43.852c0-34.063,28.015-46.072,76.648-47.186c13.3-0.304,28.238-0.35,40.589-0.35l-0.002-3.328
	c0-22.803-14.622-32.18-39.96-32.18c-18.811,0-32.674,7.786-34.103,21.236h-32.84c3.476-33.539,38.712-42.021,69.694-42.021
	c37.116,0,68.467,13.207,68.467,52.465V171.294z"/>
<path fill="#E53238" d="M124.517,115.927c-1.213-29.238-22.316-40.18-44.871-40.18c-24.321,0-43.739,12.309-47.141,40.18H124.517z
	 M31.831,136.712c1.687,28.369,21.25,45.148,48.149,45.148c18.637,0,35.215-7.594,40.766-24.113h32.236
	c-6.27,33.518-41.885,44.895-72.54,44.895C24.703,202.642,0,171.945,0,130.548c0-45.572,25.551-75.586,80.951-75.586
	c44.096,0,76.405,23.078,76.405,73.447v8.303H31.831z"/>
<path fill="#0064D2" d="M237.531,181.267c29.048,0,48.925-20.908,48.925-52.461c0-31.549-19.877-52.459-48.925-52.459
	c-28.885,0-48.927,20.91-48.927,52.459C188.604,160.359,208.646,181.267,237.531,181.267z M157.354,0h31.25l-0.003,78.511
	c15.316-18.25,36.418-23.549,57.188-23.549c34.825,0,73.506,23.5,73.506,74.241c0,42.489-30.763,73.438-74.086,73.438
	c-22.677,0-44.022-8.135-57.187-24.252c0,6.438-0.359,12.926-1.063,19.064h-30.669c0.533-9.924,1.063-22.279,1.063-32.275V0z"/>
<path fill="#86B817" d="M623.717,60.162l-96.642,189.793h-34.994l27.784-52.701L447.137,60.162h36.566l53.518,107.111
	l53.367-107.111H623.717z"/>
<g>
	<path d="M637.81,60.16h2.603v3.564h3.963v1.811h-3.963v7.732c0,1.435,0.4,2.213,2.038,2.213c0.482,0,1.257-0.055,2.012-0.163v1.823
		c-0.862,0.105-1.72,0.158-2.521,0.158c-2.633,0-4.132-0.857-4.132-3.844v-7.919h-3.517v-1.811h3.517V60.16z"/>
	<path d="M647.854,66.766c0-1.016-0.056-1.983-0.107-3.042h2.438c0.051,0.668,0.107,1.436,0.107,2.372h0.057
		c1.529-2.048,3.455-2.882,5.651-2.882c2.254,0,4.106,1.101,4.882,3.365c0.965-1.838,3.054-3.365,5.544-3.365
		c3.809,0,6.17,1.863,6.17,6.23v7.695h-2.628v-6.715c0-3.256-0.939-5.402-3.778-5.402c-2.305,0-4.661,1.584-4.661,5.99v6.127h-2.607
		v-6.876c0-3.606-1.232-5.241-3.645-5.241c-2.3,0-4.82,1.664-4.82,5.615v6.502h-2.603V66.766z"/>
</g>
</svg>
